PathFileType	4	(X/Y/Z)	G:/My Drive/Project Folder - EPSRC SCI-FES/EPSRC-SCI-FES/Technical/Trial Tests/04122019 - Marker Volunteer01/Rosti Data/New Session 101.trc	
DataRate	CameraRate	NumFrames	NumMarkers	Units	OrigDataRate	OrigDataStartFrame	OrigNumFrames	
100.00	100.00	27	14	mm	100.00	43	337	
Frame#	Time	C7			PX			T8			IJ			SC			AC			AI			TS			AA			GH			LE			ME			US			RS			
		X1	Y1	Z1	X2	Y2	Z2	X3	Y3	Z3	X4	Y4	Z4	X5	Y5	Z5	X6	Y6	Z6	X7	Y7	Z7	X8	Y8	Z8	X9	Y9	Z9	X10	Y10	Z10	X11	Y11	Z11	X12	Y12	Z12	X13	Y13	Z13	X14	Y14	Z14	

43	0.420	666.75317	-15.16594	1540.54321	447.22971	-34.83267	1288.61816	747.56256	-6.20047	1326.19080	510.49106	-36.46125	1431.56641	513.97235	-11.25917	1439.96899	581.20490	132.20897	1485.70251	710.73712	71.40549	1464.40002	743.85516	76.31954	1346.59534	650.96021	184.33633	1444.06885	611.39941	195.41275	1458.23889	541.65350	285.05029	1184.57849	508.94357	202.19519	1146.52234	451.85300	373.20618	935.58539	396.49158	407.32172	981.94299 
44	0.430	666.64020	-15.15205	1540.54004	447.11816	-34.83391	1288.62207	747.47919	-6.21540	1326.19983	510.38129	-36.48308	1431.54919	513.86182	-11.26144	1439.96228	581.09967	132.20683	1485.70715	710.63580	71.40139	1464.41333	743.76392	76.32392	1346.61267	650.84778	184.34258	1444.08020	611.26672	195.37279	1458.21729	541.57581	285.05402	1184.58484	508.57275	202.24184	1146.54724	451.67981	373.15347	935.58575	396.40906	407.33759	981.94287 
45	0.440	666.51605	-15.13397	1540.52332	447.00623	-34.83124	1288.62891	747.40509	-6.23421	1326.20605	510.26959	-36.50690	1431.52966	513.75439	-11.26498	1439.95813	580.99786	132.20427	1485.70886	710.52966	71.40025	1464.42151	743.67639	76.32430	1346.62878	650.73999	184.34447	1444.08484	611.11932	195.30734	1458.17859	541.49561	285.05844	1184.59033	508.24469	202.27785	1146.55908	451.51926	373.10489	935.58545	396.32755	407.34183	981.93707 
46	0.450	666.38239	-15.11460	1540.49585	446.89569	-34.82519	1288.63855	747.34052	-6.25044	1326.21338	510.15735	-36.53209	1431.50928	513.65118	-11.26931	1439.95667	580.90112	132.20110	1485.70837	710.42737	71.40161	1464.42639	743.59412	76.32174	1346.64307	650.64148	184.34239	1444.08447	610.96674	195.22746	1458.12988	541.41199	285.06281	1184.59387	507.96948	202.30286	1146.55847	451.38443	373.06952	935.58502	396.24860	407.34085	981.93335 
47	0.460	666.24561	-15.09795	1540.46362	446.78900	-34.81739	1288.65039	747.27466	-6.26163	1326.22375	510.04608	-36.55761	1431.48914	513.55292	-11.27389	1439.95801	580.81104	132.19728	1485.70618	710.33673	71.39973	1464.43103	743.51825	76.31708	1346.65430	650.55389	184.33963	1444.08374	610.82239	195.14795	1458.08081	541.32489	285.06342	1184.59485	507.75336	202.31702	1146.54614	451.28067	373.05093	935.58478	396.17075	407.33978	981.93414 
48	0.470	666.11572	-15.08776	1540.43408	446.68845	-34.80965	1288.66296	747.20020	-6.27602	1326.23755	509.93747	-36.58230	1431.47009	513.46014	-11.27826	1439.96155	580.72894	132.19295	1485.70313	710.26044	71.38822	1464.43726	743.44934	76.31094	1346.66199	650.47449	184.33795	1444.08679	610.69696	195.08026	1458.03918	541.23676	285.05667	1184.59314	507.59845	202.32094	1146.52283	451.20712	373.04825	935.58441	396.08896	407.34430	981.93860 
49	0.480	666.00104	-15.08562	1540.41248	446.59595	-34.80342	1288.67493	747.11993	-6.29971	1326.25122	509.83337	-36.60535	1431.45276	513.37292	-11.28208	1439.96631	580.65546	132.18845	1485.69958	710.19586	71.36782	1464.44604	743.38715	76.30367	1346.66577	650.39941	184.33586	1444.09253	610.59509	195.02953	1458.00867	541.15247	285.04166	1184.58801	507.50272	202.31560	1146.48987	451.16003	373.05847	935.58337	396.00150	407.35876	981.94324 
50	0.490	665.90485	-15.09026	1540.40027	446.51257	-34.79960	1288.68518	747.04041	-6.32693	1326.25562	509.73596	-36.62664	1431.43774	513.29126	-11.28520	1439.97119	580.59070	132.18413	1485.69580	710.13745	71.34623	1464.45422	743.33069	76.29538	1346.66565	650.32806	184.33086	1444.09656	610.51624	194.99567	1457.98889	541.07568	285.02176	1184.57825	507.46054	202.30232	1146.44861	451.13464	373.07822	935.58136	395.91443	407.37686	981.94568 
51	0.500	665.82568	-15.09852	1540.39502	446.43820	-34.79895	1288.69360	746.96619	-6.34965	1326.24585	509.64777	-36.64680	1431.42578	513.21539	-11.28753	1439.97534	580.53418	132.18027	1485.69189	710.08026	71.32953	1464.45374	743.27863	76.28605	1346.66174	650.26282	184.32394	1444.09521	610.45715	194.97614	1457.97754	541.00635	285.00189	1184.56384	507.46320	202.28270	1146.40125	451.12607	373.10425	935.57831	395.83685	407.38016	981.94385 
52	0.510	665.75995	-15.10740	1540.39331	446.37125	-34.80225	1288.70044	746.89728	-6.36842	1326.22498	509.57117	-36.66716	1431.41687	513.14569	-11.28904	1439.97815	580.48517	132.17699	1485.68860	710.02454	71.31751	1464.44006	743.22955	76.27571	1346.65454	650.20624	184.31860	1444.08862	610.41376	194.96783	1457.97229	540.94189	284.98526	1184.54688	507.49976	202.25851	1146.35022	451.12939	373.13385	935.57458	395.77155	407.35696	981.93457 
53	0.520	665.70367	-15.11538	1540.39233	446.30899	-34.81010	1288.70679	746.82947	-6.38997	1326.20093	509.50757	-36.68928	1431.41101	513.08228	-11.28965	1439.97913	580.44263	132.17427	1485.68665	709.97363	71.30553	1464.41785	743.18219	76.26445	1346.64502	650.15887	184.31651	1444.07898	610.38214	194.96783	1457.97095	540.88025	284.97220	1184.53113	507.55774	202.23152	1146.29858	451.13983	373.16455	935.57062	395.71359	407.31277	981.91949 
54	0.530	665.65338	-15.12238	1540.39111	446.24857	-34.82288	1288.71375	746.76245	-6.41851	1326.18225	509.45706	-36.71446	1431.40796	513.02478	-11.28936	1439.97827	580.40509	132.17171	1485.68628	709.92737	71.28954	1464.39624	743.13562	76.25233	1346.63416	650.11945	184.31670	1444.06921	610.35919	194.97362	1457.97241	540.82080	284.96011	1184.52039	507.62421	202.20340	1146.24976	451.15274	373.19421	935.56665	395.65607	407.26328	981.90558 
55	0.540	665.60645	-15.12922	1540.38965	446.18826	-34.84067	1288.72180	746.69818	-6.44933	1326.17322	509.41837	-36.74340	1431.40710	512.97247	-11.28844	1439.97559	580.37067	132.16844	1485.68750	709.88190	71.27016	1464.38184	743.08954	76.23922	1346.62244	650.08606	184.31554	1444.06079	610.34229	194.98311	1457.97571	540.76318	284.94504	1184.51575	507.68716	202.17570	1146.20654	451.16400	373.22079	935.56268	395.59760	407.21695	981.89764 
56	0.550	665.56146	-15.13702	1540.38843	446.12784	-34.86312	1288.73083	746.63458	-6.47477	1326.16858	509.38889	-36.77609	1431.40735	512.92419	-11.28740	1439.97180	580.33722	132.16345	1485.68933	709.83807	71.24944	1464.37622	743.04370	76.22488	1346.61060	650.05621	184.30904	1444.05359	610.32947	194.99416	1457.97937	540.70721	284.92474	1184.51257	507.73727	202.14977	1146.17090	451.17017	373.24255	935.55817	395.54065	407.18137	981.89807 
57	0.560	665.51801	-15.14631	1540.38770	446.06845	-34.88933	1288.73975	746.57269	-6.49306	1326.16260	509.36539	-36.81228	1431.40784	512.87860	-11.28700	1439.96753	580.30249	132.15590	1485.69067	709.80096	71.22662	1464.37793	742.99799	76.20908	1346.59875	650.02637	184.29619	1444.04456	610.31824	195.00421	1457.98218	540.65271	284.89746	1184.50256	507.76889	202.12656	1146.14380	451.16882	373.25830	935.55243	395.48749	407.15219	981.90149 
58	0.570	665.47632	-15.15682	1540.38745	446.01166	-34.91806	1288.74719	746.51898	-6.50549	1326.15503	509.34488	-36.85217	1431.40808	512.83435	-11.28813	1439.96387	580.26477	132.14526	1485.69080	709.77173	71.20222	1464.38281	742.95215	76.19173	1346.58704	649.99408	184.27898	1444.03064	610.30634	195.01103	1457.98279	540.60101	284.86194	1184.48022	507.78094	202.10692	1146.12451	451.15915	373.26733	935.54517	395.44025	407.12149	981.90063 
59	0.580	665.43683	-15.16826	1540.38770	445.95859	-34.94794	1288.75293	746.47186	-6.51334	1326.14502	509.32523	-36.89650	1431.40808	512.79041	-11.29178	1439.96155	580.22327	132.13132	1485.68994	709.74353	71.17999	1464.38403	742.90601	76.17290	1346.57544	649.96033	184.25888	1444.01184	610.29199	195.01332	1457.98169	540.55188	284.81915	1184.44666	507.77667	202.09154	1146.11121	451.14200	373.26974	935.53656	395.39886	407.10043	981.89496 
60	0.590	665.39935	-15.18115	1540.38892	445.90924	-34.97773	1288.75732	746.42322	-6.52218	1326.13269	509.30450	-36.94541	1431.40845	512.74658	-11.29900	1439.96106	580.17780	132.11420	1485.68945	709.70850	71.16133	1464.37659	742.85950	76.15288	1346.56433	649.92609	184.23666	1443.99268	610.27234	195.00899	1457.98010	540.50421	284.77399	1184.41113	507.76257	202.08084	1146.10095	451.11972	373.26630	935.52765	395.36334	407.09891	981.88843 
61	0.600	665.36414	-15.19710	1540.39197	445.86276	-35.00651	1288.76160	746.37250	-6.53945	1326.12256	509.28067	-36.99713	1431.41040	512.70300	-11.31072	1439.96326	580.12878	132.09418	1485.69092	709.66589	71.14252	1464.36426	742.81305	76.13206	1346.55396	649.88971	184.21289	1443.98010	610.24292	194.99445	1457.97852	540.45764	284.73193	1184.38733	507.74640	202.07483	1146.09106	451.09558	373.25827	935.51984	395.33530	407.10336	981.88361 
62	0.610	665.33191	-15.21810	1540.39771	445.81818	-35.03359	1288.76685	746.32538	-6.56735	1326.11987	509.25183	-37.04832	1431.41479	512.66071	-11.32759	1439.96790	580.07697	132.07155	1485.69568	709.62268	71.11974	1464.35681	742.76727	76.11089	1346.54480	649.84937	184.18906	1443.98035	610.19983	194.96626	1457.97693	540.41174	284.69525	1184.38318	507.73550	202.07288	1146.07910	451.07300	373.24710	935.51428	395.31549	407.09363	981.88483 
63	0.620	665.30396	-15.24514	1540.40588	445.77505	-35.05841	1288.77368	746.28357	-6.60169	1326.12073	509.21713	-37.09562	1431.42200	512.62085	-11.34975	1439.97461	580.02356	132.04660	1485.70422	709.58612	71.09192	1464.35962	742.72308	76.08988	1346.53687	649.80554	184.16806	1443.99451	610.14124	194.92284	1457.97449	540.36597	284.66370	1184.39673	507.73523	202.07368	1146.06372	451.05447	373.23398	935.51141	395.30350	407.07669	981.90125 
64	0.630	665.28210	-15.27774	1540.41614	445.73373	-35.08178	1288.78174	746.24823	-6.63354	1326.11780	509.17722	-37.13657	1431.43188	512.58453	-11.37668	1439.98230	579.97009	132.01967	1485.71606	709.55682	71.06219	1464.36841	742.68115	76.06962	1346.53064	649.75861	184.15184	1444.01685	610.06970	194.86696	1457.97144	540.32068	284.63824	1184.41968	507.74805	202.07542	1146.04480	451.04123	373.21930	935.51086	395.30176	407.08310	981.93951 
65	0.640	665.26782	-15.31433	1540.42834	445.69507	-35.10646	1288.78979	746.22040	-6.65390	1326.10999	509.13333	-37.16932	1431.44336	512.55225	-11.40730	1439.99011	579.91803	131.99118	1485.72949	709.53119	71.03670	1464.37415	742.64191	76.05076	1346.52588	649.70807	184.14020	1444.03870	609.99194	194.80534	1457.96912	540.27667	284.62079	1184.44421	507.77368	202.07591	1146.02319	451.03290	373.20279	935.51147	395.30878	407.13977	981.99518 
66	0.650	665.26044	-15.35255	1540.44128	445.65945	-35.13598	1288.79675	746.19379	-6.66201	1326.10095	509.08704	-37.19238	1431.45581	512.52429	-11.44033	1439.99707	579.86859	131.96155	1485.74329	709.50562	71.01740	1464.37122	742.60535	76.03391	1346.52197	649.65533	184.13109	1444.05383	609.91541	194.74496	1457.96899	540.23480	284.60916	1184.46472	507.80933	202.07304	1146.00024	451.02823	373.18387	935.51196	395.31204	407.21112	982.03662 
67	0.660	665.25690	-15.38964	1540.45300	445.62671	-35.17284	1288.80164	746.16632	-6.66713	1326.09058	509.03989	-37.20481	1431.46863	512.50037	-11.47470	1440.00269	579.82257	131.93111	1485.75635	709.47821	70.99959	1464.36108	742.57111	76.01958	1346.51868	649.60449	184.12088	1444.06152	609.84619	194.69075	1457.97266	540.19574	284.59604	1184.47864	507.85089	202.06506	1145.97754	451.02554	373.16211	935.51178	395.29565	407.21149	982.02301 
68	0.670	665.25421	-15.42339	1540.46118	445.59631	-35.21704	1288.80493	746.14325	-6.67978	1326.07629	508.99347	-37.20675	1431.48181	512.48016	-11.50985	1440.00732	579.78033	131.90005	1485.76831	709.44855	70.97793	1464.35010	742.53839	76.00813	1346.51489	649.56042	184.10606	1444.06653	609.78766	194.64520	1457.98059	540.15948	284.57446	1184.48792	507.89426	202.05090	1145.95667	451.02356	373.13788	935.51123	395.26233	407.11731	981.96045 
69	0.680	665.25085	-15.45278	1540.46472	445.56799	-35.26640	1288.80798	746.12250	-6.70068	1326.06018	508.94962	-37.19993	1431.49487	512.46344	-11.54571	1440.01160	579.74255	131.86862	1485.77905	709.41956	70.95376	1464.34412	742.50641	75.99965	1346.50989	649.52539	184.08661	1444.07458	609.74042	194.60873	1457.99243	540.12555	284.54410	1184.49719	507.93588	202.03027	1145.93884	451.02145	373.11230	935.51129	395.23080	406.99030	981.89722 
